<?xml version="1.0" encoding="UTF-8" standalone="no"?>
<!DOCTYPE svg PUBLIC "-//W3C//DTD SVG 1.1//EN"
 "http://www.w3.org/Graphics/SVG/1.1/DTD/svg11.dtd">
<!-- Generated by graphviz version 2.40.1 (20161225.0304)
 -->
<!-- Title: Graphical Class Hierarchy Pages: 1 -->
<svg width="219pt" height="88pt"
 viewBox="0.00 0.00 219.00 88.00" xmlns="http://www.w3.org/2000/svg" xmlns:xlink="http://www.w3.org/1999/xlink">
<g id="graph0" class="graph" transform="scale(1 1) rotate(0) translate(4 84)">
<title>Graphical Class Hierarchy</title>
<polygon fill="#ffffff" stroke="transparent" points="-4,4 -4,-84 215,-84 215,4 -4,4"/>
<!-- Node6 -->
<g id="node1" class="node">
<title>Node6</title>
<polygon fill="#ffffff" stroke="#bfbfbf" points="0,-30 0,-49 77,-49 77,-30 0,-30"/>
<text text-anchor="middle" x="38.5" y="-37" font-family="Helvetica,sans-Serif" font-size="10.00" fill="#000000">RK4Integrator</text>
</g>
<!-- Node0 -->
<g id="node2" class="node">
<title>Node0</title>
<g id="a_node2"><a xlink:href="structrk4__ad__integrator_1_1rk4adintegrator.html" target="_top" xlink:title="Class for the fourth&#45;order Runge&#45;Kutta (RK4) AD integrator object. ">
<polygon fill="#ffffff" stroke="#000000" points="113,-49.5 113,-79.5 211,-79.5 211,-49.5 113,-49.5"/>
<text text-anchor="start" x="121" y="-67.5" font-family="Helvetica,sans-Serif" font-size="10.00" fill="#000000">rk4_ad_integrator::</text>
<text text-anchor="middle" x="162" y="-56.5" font-family="Helvetica,sans-Serif" font-size="10.00" fill="#000000">rk4adintegrator</text>
</a>
</g>
</g>
<!-- Node6&#45;&gt;Node0 -->
<g id="edge1" class="edge">
<title>Node6&#45;&gt;Node0</title>
<path fill="none" stroke="#191970" d="M87.3093,-49.3804C95.7402,-51.0871 104.5082,-52.862 112.9456,-54.57"/>
<polygon fill="#191970" stroke="#191970" points="87.733,-45.8953 77.2373,-47.3416 86.3441,-52.7561 87.733,-45.8953"/>
</g>
<!-- Node8 -->
<g id="node3" class="node">
<title>Node8</title>
<g id="a_node3"><a xlink:href="structrk4__tl__integrator_1_1rk4tlintegrator.html" target="_top" xlink:title="Class for the fourth&#45;order Runge&#45;Kutta (RK4) TL integrator object. ">
<polygon fill="#ffffff" stroke="#000000" points="116,-.5 116,-30.5 208,-30.5 208,-.5 116,-.5"/>
<text text-anchor="start" x="124" y="-18.5" font-family="Helvetica,sans-Serif" font-size="10.00" fill="#000000">rk4_tl_integrator::</text>
<text text-anchor="middle" x="162" y="-7.5" font-family="Helvetica,sans-Serif" font-size="10.00" fill="#000000">rk4tlintegrator</text>
</a>
</g>
</g>
<!-- Node6&#45;&gt;Node8 -->
<g id="edge2" class="edge">
<title>Node6&#45;&gt;Node8</title>
<path fill="none" stroke="#191970" d="M87.1842,-30.0391C96.5426,-28.2205 106.3205,-26.3203 115.6041,-24.5162"/>
<polygon fill="#191970" stroke="#191970" points="86.386,-26.6287 77.2373,-31.9721 87.7214,-33.5001 86.386,-26.6287"/>
</g>
</g>
</svg>
