<?xml version="1.0" encoding="UTF-8" standalone="no"?>
<!DOCTYPE svg PUBLIC "-//W3C//DTD SVG 1.1//EN"
 "http://www.w3.org/Graphics/SVG/1.1/DTD/svg11.dtd">
<!-- Generated by graphviz version 2.40.1 (20161225.0304)
 -->
<!-- Title: Graphical Class Hierarchy Pages: 1 -->
<svg width="238pt" height="66pt"
 viewBox="0.00 0.00 238.00 66.00" xmlns="http://www.w3.org/2000/svg" xmlns:xlink="http://www.w3.org/1999/xlink">
<g id="graph0" class="graph" transform="scale(1 1) rotate(0) translate(4 62)">
<title>Graphical Class Hierarchy</title>
<polygon fill="#ffffff" stroke="transparent" points="-4,4 -4,-62 234,-62 234,4 -4,4"/>
<!-- Node18 -->
<g id="node1" class="node">
<title>Node18</title>
<polygon fill="#ffffff" stroke="#bfbfbf" points="0,-19.5 0,-38.5 58,-38.5 58,-19.5 0,-19.5"/>
<text text-anchor="middle" x="29" y="-26.5" font-family="Helvetica,sans-Serif" font-size="10.00" fill="#000000">Integrator</text>
</g>
<!-- Node0 -->
<g id="node2" class="node">
<title>Node0</title>
<g id="a_node2"><a xlink:href="structrk2__integrator_1_1rk2integrator.html" target="_top" xlink:title="Class for the Heun (RK2) integrator object. ">
<polygon fill="#ffffff" stroke="#000000" points="94,-38.5 94,-57.5 230,-57.5 230,-38.5 94,-38.5"/>
<text text-anchor="middle" x="162" y="-45.5" font-family="Helvetica,sans-Serif" font-size="10.00" fill="#000000">rk2_integrator::rk2integrator</text>
</a>
</g>
</g>
<!-- Node18&#45;&gt;Node0 -->
<g id="edge1" class="edge">
<title>Node18&#45;&gt;Node0</title>
<path fill="none" stroke="#191970" d="M68.1935,-34.5991C76.732,-35.8189 85.9973,-37.1425 95.2686,-38.4669"/>
<polygon fill="#191970" stroke="#191970" points="68.5819,-31.1191 58.1874,-33.1696 67.5919,-38.0488 68.5819,-31.1191"/>
</g>
<!-- Node20 -->
<g id="node3" class="node">
<title>Node20</title>
<g id="a_node3"><a xlink:href="structrk4__integrator_1_1rk4integrator.html" target="_top" xlink:title="Class for the fourth&#45;order Runge&#45;Kutta (RK4) integrator object. ">
<polygon fill="#ffffff" stroke="#000000" points="94,-.5 94,-19.5 230,-19.5 230,-.5 94,-.5"/>
<text text-anchor="middle" x="162" y="-7.5" font-family="Helvetica,sans-Serif" font-size="10.00" fill="#000000">rk4_integrator::rk4integrator</text>
</a>
</g>
</g>
<!-- Node18&#45;&gt;Node20 -->
<g id="edge2" class="edge">
<title>Node18&#45;&gt;Node20</title>
<path fill="none" stroke="#191970" d="M68.1935,-23.4009C76.732,-22.1811 85.9973,-20.8575 95.2686,-19.5331"/>
<polygon fill="#191970" stroke="#191970" points="67.5919,-19.9512 58.1874,-24.8304 68.5819,-26.8809 67.5919,-19.9512"/>
</g>
</g>
</svg>
