<?xml version="1.0" encoding="UTF-8" standalone="no"?>
<!DOCTYPE svg PUBLIC "-//W3C//DTD SVG 1.1//EN"
 "http://www.w3.org/Graphics/SVG/1.1/DTD/svg11.dtd">
<!-- Generated by graphviz version 2.40.1 (20161225.0304)
 -->
<!-- Title: inprod_analytic::innerproducts Pages: 1 -->
<!--zoomable 142 -->
<svg id="main" version="1.1" xmlns="http://www.w3.org/2000/svg" xmlns:xlink="http://www.w3.org/1999/xlink" xml:space="preserve" onload="init(evt)">
<style type="text/css"><![CDATA[
.edge:hover path { stroke: red; }
.edge:hover polygon { stroke: red; fill: red; }
]]></style>
<script type="text/javascript"><![CDATA[
var edges = document.getElementsByTagName('g');
if (edges && edges.length) {
  for (var i=0;i<edges.length;i++) {
    if (edges[i].id.substr(0,4)=='edge') {
      edges[i].setAttribute('class','edge');
    }
  }
}
]]></script>
        <defs>
                <circle id="rim" cx="0" cy="0" r="7"/>
                <circle id="rim2" cx="0" cy="0" r="3.5"/>
                <g id="zoomPlus">
                        <use xlink:href="#rim" fill="#404040">
                                <set attributeName="fill" to="#808080" begin="zoomplus.mouseover" end="zoomplus.mouseout"/>
                        </use>
                        <path d="M-4,0h8M0,-4v8" fill="none" stroke="white" stroke-width="1.5" pointer-events="none"/>
                </g>
                <g id="zoomMin">
                        <use xlink:href="#rim" fill="#404040">
                                <set attributeName="fill" to="#808080" begin="zoomminus.mouseover" end="zoomminus.mouseout"/>
                        </use>
                        <path d="M-4,0h8" fill="none" stroke="white" stroke-width="1.5" pointer-events="none"/>
                </g>
                <g id="dirArrow">
                        <path fill="none" stroke="white" stroke-width="1.5" d="M0,-3.0v7 M-2.5,-0.5L0,-3.0L2.5,-0.5"/>
                </g>
               <g id="resetDef">
                       <use xlink:href="#rim2" fill="#404040">
                               <set attributeName="fill" to="#808080" begin="reset.mouseover" end="reset.mouseout"/>
                       </use>
               </g>
        </defs>

<script type="text/javascript">
var viewWidth = 982;
var viewHeight = 142;
var sectionId = 'dynsection-0';
</script>
<script xlink:href="svgpan.js"/>
<svg id="graph" class="graph">
<g id="viewport">
<title>inprod_analytic::innerproducts</title>
<polygon fill="#ffffff" stroke="transparent" points="-4,4 -4,-138 978,-138 978,4 -4,4"/>
<!-- Node1 -->
<g id="node1" class="node">
<title>Node1</title>
<polygon fill="#bfbfbf" stroke="#000000" points="528,-76.5 528,-95.5 674,-95.5 674,-76.5 528,-76.5"/>
<text text-anchor="middle" x="601" y="-83.5" font-family="Helvetica,sans-Serif" font-size="10.00" fill="#000000">inprod_analytic::innerproducts</text>
</g>
<!-- Node4 -->
<g id="node4" class="node">
<title>Node4</title>
<g id="a_node4"><a xlink:href="structinprod__analytic_1_1atmosphereinnerproducts.html" target="_top" xlink:title="Class holding the atmospheric inner products functions. ">
<polygon fill="#ffffff" stroke="#000000" points="777,-102.5 777,-121.5 974,-121.5 974,-102.5 777,-102.5"/>
<text text-anchor="middle" x="875.5" y="-109.5" font-family="Helvetica,sans-Serif" font-size="10.00" fill="#000000">inprod_analytic::atmosphereinnerproducts</text>
</a>
</g>
</g>
<!-- Node1&#45;&gt;Node4 -->
<g id="edge4" class="edge">
<title>Node1&#45;&gt;Node4</title>
<path fill="none" stroke="#9a32cd" stroke-dasharray="5,2" d="M633.5997,-99.0843C650.686,-105.2469 672.1401,-111.912 692,-115 719.3907,-119.2589 749.3574,-120.2766 776.9858,-119.7643"/>
<polygon fill="#9a32cd" stroke="#9a32cd" points="634.6821,-95.7527 624.0893,-95.5448 632.2404,-102.3131 634.6821,-95.7527"/>
<text text-anchor="middle" x="725.5" y="-122" font-family="Helvetica,sans-Serif" font-size="10.00" fill="#000000"> inner_products</text>
</g>
<!-- Node9 -->
<g id="node9" class="node">
<title>Node9</title>
<g id="a_node9"><a xlink:href="structinprod__analytic_1_1oceaninnerproducts.html" target="_top" xlink:title="Class holding the oceanic inner products functions. ">
<polygon fill="#ffffff" stroke="#000000" points="789,-49.5 789,-68.5 962,-68.5 962,-49.5 789,-49.5"/>
<text text-anchor="middle" x="875.5" y="-56.5" font-family="Helvetica,sans-Serif" font-size="10.00" fill="#000000">inprod_analytic::oceaninnerproducts</text>
</a>
</g>
</g>
<!-- Node1&#45;&gt;Node9 -->
<g id="edge10" class="edge">
<title>Node1&#45;&gt;Node9</title>
<path fill="none" stroke="#9a32cd" stroke-dasharray="5,2" d="M684.2978,-77.8068C717.3829,-74.5525 755.4426,-70.8089 788.8511,-67.5228"/>
<polygon fill="#9a32cd" stroke="#9a32cd" points="683.8097,-74.3378 674.2004,-78.8 684.495,-81.3042 683.8097,-74.3378"/>
<text text-anchor="middle" x="725.5" y="-79" font-family="Helvetica,sans-Serif" font-size="10.00" fill="#000000"> inner_products</text>
</g>
<!-- Node2 -->
<g id="node2" class="node">
<title>Node2</title>
<g id="a_node2"><a xlink:href="structinprod__analytic_1_1oceanicwavenumber.html" target="_top" xlink:title="Oceanic bloc specification object. ">
<polygon fill="#ffffff" stroke="#000000" points="244,-114.5 244,-133.5 421,-133.5 421,-114.5 244,-114.5"/>
<text text-anchor="middle" x="332.5" y="-121.5" font-family="Helvetica,sans-Serif" font-size="10.00" fill="#000000">inprod_analytic::oceanicwavenumber</text>
</a>
</g>
</g>
<!-- Node2&#45;&gt;Node1 -->
<g id="edge1" class="edge">
<title>Node2&#45;&gt;Node1</title>
<path fill="none" stroke="#9a32cd" stroke-dasharray="5,2" d="M420.7246,-113.1781C449.2434,-109.5169 480.9874,-105.2695 510,-101 521.4057,-99.3215 533.5939,-97.4007 545.2223,-95.5065"/>
<polygon fill="#9a32cd" stroke="#9a32cd" points="420.2576,-109.7093 410.7815,-114.4478 421.1443,-116.6529 420.2576,-109.7093"/>
<text text-anchor="middle" x="479.5" y="-112" font-family="Helvetica,sans-Serif" font-size="10.00" fill="#000000"> owavenum</text>
</g>
<!-- Node3 -->
<g id="node3" class="node">
<title>Node3</title>
<g id="a_node3"><a xlink:href="structinprod__analytic_1_1atmosphericwavenumber.html" target="_top" xlink:title="Atmospheric bloc specification object. ">
<polygon fill="#ffffff" stroke="#000000" points="234,-76.5 234,-95.5 431,-95.5 431,-76.5 234,-76.5"/>
<text text-anchor="middle" x="332.5" y="-83.5" font-family="Helvetica,sans-Serif" font-size="10.00" fill="#000000">inprod_analytic::atmosphericwavenumber</text>
</a>
</g>
</g>
<!-- Node3&#45;&gt;Node1 -->
<g id="edge2" class="edge">
<title>Node3&#45;&gt;Node1</title>
<path fill="none" stroke="#9a32cd" stroke-dasharray="5,2" d="M441.5473,-86C470.6372,-86 501.3646,-86 527.9983,-86"/>
<polygon fill="#9a32cd" stroke="#9a32cd" points="441.3357,-82.5001 431.3356,-86 441.3356,-89.5001 441.3357,-82.5001"/>
<text text-anchor="middle" x="479.5" y="-89" font-family="Helvetica,sans-Serif" font-size="10.00" fill="#000000"> awavenum</text>
</g>
<!-- Node4&#45;&gt;Node1 -->
<g id="edge3" class="edge">
<title>Node4&#45;&gt;Node1</title>
<path fill="none" stroke="#9a32cd" stroke-dasharray="5,2" d="M766.9464,-101.7181C735.8272,-98.7705 702.6477,-95.6278 674.2004,-92.9334"/>
<polygon fill="#9a32cd" stroke="#9a32cd" points="766.6836,-105.2087 776.9691,-102.6674 767.3437,-98.2399 766.6836,-105.2087"/>
<text text-anchor="middle" x="725.5" y="-103" font-family="Helvetica,sans-Serif" font-size="10.00" fill="#000000"> atmos</text>
</g>
<!-- Node5 -->
<g id="node5" class="node">
<title>Node5</title>
<g id="a_node5"><a xlink:href="structparams_1_1modelconfiguration.html" target="_top" xlink:title="The general class holding the model configuration. ">
<polygon fill="#ffffff" stroke="#000000" points="264,-38.5 264,-57.5 401,-57.5 401,-38.5 264,-38.5"/>
<text text-anchor="middle" x="332.5" y="-45.5" font-family="Helvetica,sans-Serif" font-size="10.00" fill="#000000">params::modelconfiguration</text>
</a>
</g>
</g>
<!-- Node5&#45;&gt;Node1 -->
<g id="edge5" class="edge">
<title>Node5&#45;&gt;Node1</title>
<path fill="none" stroke="#9a32cd" stroke-dasharray="5,2" d="M411.5144,-57.6453C442.2851,-61.5567 477.8225,-66.2647 510,-71 521.4057,-72.6785 533.5939,-74.5993 545.2223,-76.4935"/>
<polygon fill="#9a32cd" stroke="#9a32cd" points="411.6336,-54.1326 401.2736,-56.3505 410.7555,-61.0773 411.6336,-54.1326"/>
<text text-anchor="middle" x="479.5" y="-74" font-family="Helvetica,sans-Serif" font-size="10.00" fill="#000000"> model_config</text>
</g>
<!-- Node6 -->
<g id="node6" class="node">
<title>Node6</title>
<g id="a_node6"><a xlink:href="structparams_1_1modesconfiguration.html" target="_top" xlink:title="The subclass containing the modes parameters. ">
<polygon fill="#ffffff" stroke="#000000" points="4.5,-76.5 4.5,-95.5 144.5,-95.5 144.5,-76.5 4.5,-76.5"/>
<text text-anchor="middle" x="74.5" y="-83.5" font-family="Helvetica,sans-Serif" font-size="10.00" fill="#000000">params::modesconfiguration</text>
</a>
</g>
</g>
<!-- Node6&#45;&gt;Node5 -->
<g id="edge6" class="edge">
<title>Node6&#45;&gt;Node5</title>
<path fill="none" stroke="#9a32cd" stroke-dasharray="5,2" d="M149.6148,-74.9366C187.0284,-69.4261 231.8142,-62.8297 267.7021,-57.5439"/>
<polygon fill="#9a32cd" stroke="#9a32cd" points="148.6545,-71.5402 139.2713,-76.46 149.6746,-78.4655 148.6545,-71.5402"/>
<text text-anchor="middle" x="191.5" y="-74" font-family="Helvetica,sans-Serif" font-size="10.00" fill="#000000"> modes</text>
</g>
<!-- Node7 -->
<g id="node7" class="node">
<title>Node7</title>
<g id="a_node7"><a xlink:href="structparams_1_1integrationparameters.html" target="_top" xlink:title="The subclass containing the integration parameters. ">
<polygon fill="#ffffff" stroke="#000000" points="0,-38.5 0,-57.5 149,-57.5 149,-38.5 0,-38.5"/>
<text text-anchor="middle" x="74.5" y="-45.5" font-family="Helvetica,sans-Serif" font-size="10.00" fill="#000000">params::integrationparameters</text>
</a>
</g>
</g>
<!-- Node7&#45;&gt;Node5 -->
<g id="edge7" class="edge">
<title>Node7&#45;&gt;Node5</title>
<path fill="none" stroke="#9a32cd" stroke-dasharray="5,2" d="M159.4672,-48C193.309,-48 231.7449,-48 263.7817,-48"/>
<polygon fill="#9a32cd" stroke="#9a32cd" points="159.1243,-44.5001 149.1243,-48 159.1243,-51.5001 159.1243,-44.5001"/>
<text text-anchor="middle" x="191.5" y="-51" font-family="Helvetica,sans-Serif" font-size="10.00" fill="#000000"> integration</text>
</g>
<!-- Node8 -->
<g id="node8" class="node">
<title>Node8</title>
<g id="a_node8"><a xlink:href="structparams_1_1physicsconfiguration.html" target="_top" xlink:title="The subclass containing the physical parameters of the model. ">
<polygon fill="#ffffff" stroke="#000000" points="2.5,-.5 2.5,-19.5 146.5,-19.5 146.5,-.5 2.5,-.5"/>
<text text-anchor="middle" x="74.5" y="-7.5" font-family="Helvetica,sans-Serif" font-size="10.00" fill="#000000">params::physicsconfiguration</text>
</a>
</g>
</g>
<!-- Node8&#45;&gt;Node5 -->
<g id="edge8" class="edge">
<title>Node8&#45;&gt;Node5</title>
<path fill="none" stroke="#9a32cd" stroke-dasharray="5,2" d="M149.6148,-21.0634C187.0284,-26.5739 231.8142,-33.1703 267.7021,-38.4561"/>
<polygon fill="#9a32cd" stroke="#9a32cd" points="149.6746,-17.5345 139.2713,-19.54 148.6545,-24.4598 149.6746,-17.5345"/>
<text text-anchor="middle" x="191.5" y="-33" font-family="Helvetica,sans-Serif" font-size="10.00" fill="#000000"> physics</text>
</g>
<!-- Node9&#45;&gt;Node1 -->
<g id="edge9" class="edge">
<title>Node9&#45;&gt;Node1</title>
<path fill="none" stroke="#9a32cd" stroke-dasharray="5,2" d="M838.7243,-46.4211C801.3082,-35.4709 741.8886,-23.197 692,-36 661.6187,-43.7968 630.4973,-64.0936 613.6772,-76.2963"/>
<polygon fill="#9a32cd" stroke="#9a32cd" points="838.0818,-49.8842 848.6678,-49.4525 840.1232,-43.1884 838.0818,-49.8842"/>
<text text-anchor="middle" x="725.5" y="-39" font-family="Helvetica,sans-Serif" font-size="10.00" fill="#000000"> ocean</text>
</g>
</g>
</svg>
        <g id="navigator" transform="translate(0 0)" fill="#404254">
                <rect fill="#f2f5e9" fill-opacity="0.5" stroke="#606060" stroke-width=".5" x="0" y="0" width="60" height="60"/>
                <use id="zoomplus" xlink:href="#zoomPlus" x="17" y="9" onmousedown="handleZoom(evt,'in')"/>
                <use id="zoomminus" xlink:href="#zoomMin" x="42" y="9" onmousedown="handleZoom(evt,'out')"/>
                <use id="reset" xlink:href="#resetDef" x="30" y="36" onmousedown="handleReset()"/>
                <g id="arrowUp" xlink:href="#dirArrow" transform="translate(30 24)" onmousedown="handlePan(0,-1)">
                  <use xlink:href="#rim" fill="#404040">
                        <set attributeName="fill" to="#808080" begin="arrowUp.mouseover" end="arrowUp.mouseout"/>
                  </use>
                  <path fill="none" stroke="white" stroke-width="1.5" d="M0,-3.0v7 M-2.5,-0.5L0,-3.0L2.5,-0.5"/>
                </g>
                <g id="arrowRight" xlink:href="#dirArrow" transform="rotate(90) translate(36 -43)" onmousedown="handlePan(1,0)">
                  <use xlink:href="#rim" fill="#404040">
                        <set attributeName="fill" to="#808080" begin="arrowRight.mouseover" end="arrowRight.mouseout"/>
                  </use>
                  <path fill="none" stroke="white" stroke-width="1.5" d="M0,-3.0v7 M-2.5,-0.5L0,-3.0L2.5,-0.5"/>
                </g>
                <g id="arrowDown" xlink:href="#dirArrow" transform="rotate(180) translate(-30 -48)" onmousedown="handlePan(0,1)">
                  <use xlink:href="#rim" fill="#404040">
                        <set attributeName="fill" to="#808080" begin="arrowDown.mouseover" end="arrowDown.mouseout"/>
                  </use>
                  <path fill="none" stroke="white" stroke-width="1.5" d="M0,-3.0v7 M-2.5,-0.5L0,-3.0L2.5,-0.5"/>
                </g>
                <g id="arrowLeft" xlink:href="#dirArrow" transform="rotate(270) translate(-36 17)" onmousedown="handlePan(-1,0)">
                  <use xlink:href="#rim" fill="#404040">
                        <set attributeName="fill" to="#808080" begin="arrowLeft.mouseover" end="arrowLeft.mouseout"/>
                  </use>
                  <path fill="none" stroke="white" stroke-width="1.5" d="M0,-3.0v7 M-2.5,-0.5L0,-3.0L2.5,-0.5"/>
                </g>
        </g>
        <svg viewBox="0 0 15 15" width="100%" height="30px" preserveAspectRatio="xMaxYMin meet">
         <g id="arrow_out" transform="scale(0.3 0.3)">
          <a xlink:href="structinprod__analytic_1_1innerproducts__coll__graph_org.svg" target="_base">
           <rect id="button" ry="5" rx="5" y="6" x="6" height="38" width="38"
                fill="#f2f5e9" fill-opacity="0.5" stroke="#606060" stroke-width="1.0"/>
           <path id="arrow"
             d="M 11.500037,31.436501 C 11.940474,20.09759 22.043105,11.32322 32.158766,21.979434 L 37.068811,17.246167 C 37.068811,17.246167 37.088388,32 37.088388,32 L 22.160133,31.978069 C 22.160133,31.978069 26.997745,27.140456 26.997745,27.140456 C 18.528582,18.264221 13.291696,25.230495 11.500037,31.436501 z"
             style="fill:#404040;"/>
          </a>
         </g>
        </svg>
</svg>
