<?xml version="1.0" encoding="UTF-8" standalone="no"?>
<!DOCTYPE svg PUBLIC "-//W3C//DTD SVG 1.1//EN"
 "http://www.w3.org/Graphics/SVG/1.1/DTD/svg11.dtd">
<!-- Generated by graphviz version 2.40.1 (20161225.0304)
 -->
<!-- Title: aotensor_def::atmoctensor Pages: 1 -->
<svg width="141pt" height="229pt"
 viewBox="0.00 0.00 141.00 229.00" xmlns="http://www.w3.org/2000/svg" xmlns:xlink="http://www.w3.org/1999/xlink">
<g id="graph0" class="graph" transform="scale(1 1) rotate(0) translate(4 225)">
<title>aotensor_def::atmoctensor</title>
<polygon fill="#ffffff" stroke="transparent" points="-4,4 -4,-225 137,-225 137,4 -4,4"/>
<!-- Node1 -->
<g id="node1" class="node">
<title>Node1</title>
<polygon fill="#bfbfbf" stroke="#000000" points="0,-.5 0,-19.5 133,-19.5 133,-.5 0,-.5"/>
<text text-anchor="middle" x="66.5" y="-7.5" font-family="Helvetica,sans-Serif" font-size="10.00" fill="#000000">aotensor_def::atmoctensor</text>
</g>
<!-- Node2 -->
<g id="node2" class="node">
<title>Node2</title>
<g id="a_node2"><a xlink:href="structtensor__def_1_1tensor.html" target="_top" xlink:title="General class to represent a sparse tensor. ">
<polygon fill="#ffffff" stroke="#000000" points="19,-67.5 19,-86.5 114,-86.5 114,-67.5 19,-67.5"/>
<text text-anchor="middle" x="66.5" y="-74.5" font-family="Helvetica,sans-Serif" font-size="10.00" fill="#000000">tensor_def::tensor</text>
</a>
</g>
</g>
<!-- Node2&#45;&gt;Node1 -->
<g id="edge1" class="edge">
<title>Node2&#45;&gt;Node1</title>
<path fill="none" stroke="#9a32cd" stroke-dasharray="5,2" d="M66.5,-57.1079C66.5,-44.714 66.5,-29.3263 66.5,-19.5817"/>
<polygon fill="#9a32cd" stroke="#9a32cd" points="63.0001,-57.4005 66.5,-67.4005 70.0001,-57.4006 63.0001,-57.4005"/>
<text text-anchor="middle" x="82" y="-41" font-family="Helvetica,sans-Serif" font-size="10.00" fill="#000000"> tensor</text>
</g>
<!-- Node3 -->
<g id="node3" class="node">
<title>Node3</title>
<g id="a_node3"><a xlink:href="structtensor__def_1_1coolist.html" target="_top" xlink:title="Coordinate list. Type used to represent the sparse tensor. ">
<polygon fill="#ffffff" stroke="#000000" points="18,-134.5 18,-153.5 115,-153.5 115,-134.5 18,-134.5"/>
<text text-anchor="middle" x="66.5" y="-141.5" font-family="Helvetica,sans-Serif" font-size="10.00" fill="#000000">tensor_def::coolist</text>
</a>
</g>
</g>
<!-- Node3&#45;&gt;Node2 -->
<g id="edge2" class="edge">
<title>Node3&#45;&gt;Node2</title>
<path fill="none" stroke="#9a32cd" stroke-dasharray="5,2" d="M66.5,-124.1079C66.5,-111.714 66.5,-96.3263 66.5,-86.5817"/>
<polygon fill="#9a32cd" stroke="#9a32cd" points="63.0001,-124.4005 66.5,-134.4005 70.0001,-124.4006 63.0001,-124.4005"/>
<text text-anchor="middle" x="70" y="-108" font-family="Helvetica,sans-Serif" font-size="10.00" fill="#000000"> t</text>
</g>
<!-- Node4 -->
<g id="node4" class="node">
<title>Node4</title>
<g id="a_node4"><a xlink:href="structtensor__def_1_1coolistelem.html" target="_top" xlink:title="Coordinate list element type. Elementary elements of the sparse tensors. ">
<polygon fill="#ffffff" stroke="#000000" points="7.5,-201.5 7.5,-220.5 125.5,-220.5 125.5,-201.5 7.5,-201.5"/>
<text text-anchor="middle" x="66.5" y="-208.5" font-family="Helvetica,sans-Serif" font-size="10.00" fill="#000000">tensor_def::coolistelem</text>
</a>
</g>
</g>
<!-- Node4&#45;&gt;Node3 -->
<g id="edge3" class="edge">
<title>Node4&#45;&gt;Node3</title>
<path fill="none" stroke="#9a32cd" stroke-dasharray="5,2" d="M66.5,-191.1079C66.5,-178.714 66.5,-163.3263 66.5,-153.5817"/>
<polygon fill="#9a32cd" stroke="#9a32cd" points="63.0001,-191.4005 66.5,-201.4005 70.0001,-191.4006 63.0001,-191.4005"/>
<text text-anchor="middle" x="81.5" y="-175" font-family="Helvetica,sans-Serif" font-size="10.00" fill="#000000"> elems</text>
</g>
</g>
</svg>
