<?xml version="1.0" encoding="UTF-8" standalone="no"?>
<!DOCTYPE svg PUBLIC "-//W3C//DTD SVG 1.1//EN"
 "http://www.w3.org/Graphics/SVG/1.1/DTD/svg11.dtd">
<!-- Generated by graphviz version 2.40.1 (20161225.0304)
 -->
<!-- Title: tl_ad_tensor::tltensor Pages: 1 -->
<svg width="126pt" height="229pt"
 viewBox="0.00 0.00 126.00 229.00" xmlns="http://www.w3.org/2000/svg" xmlns:xlink="http://www.w3.org/1999/xlink">
<g id="graph0" class="graph" transform="scale(1 1) rotate(0) translate(4 225)">
<title>tl_ad_tensor::tltensor</title>
<polygon fill="#ffffff" stroke="transparent" points="-4,4 -4,-225 122,-225 122,4 -4,4"/>
<!-- Node1 -->
<g id="node1" class="node">
<title>Node1</title>
<polygon fill="#bfbfbf" stroke="#000000" points="5,-.5 5,-19.5 113,-19.5 113,-.5 5,-.5"/>
<text text-anchor="middle" x="59" y="-7.5" font-family="Helvetica,sans-Serif" font-size="10.00" fill="#000000">tl_ad_tensor::tltensor</text>
</g>
<!-- Node2 -->
<g id="node2" class="node">
<title>Node2</title>
<g id="a_node2"><a xlink:href="structtensor__def_1_1tensor.html" target="_top" xlink:title="General class to represent a sparse tensor. ">
<polygon fill="#ffffff" stroke="#000000" points="11.5,-67.5 11.5,-86.5 106.5,-86.5 106.5,-67.5 11.5,-67.5"/>
<text text-anchor="middle" x="59" y="-74.5" font-family="Helvetica,sans-Serif" font-size="10.00" fill="#000000">tensor_def::tensor</text>
</a>
</g>
</g>
<!-- Node2&#45;&gt;Node1 -->
<g id="edge1" class="edge">
<title>Node2&#45;&gt;Node1</title>
<path fill="none" stroke="#9a32cd" stroke-dasharray="5,2" d="M59,-57.1079C59,-44.714 59,-29.3263 59,-19.5817"/>
<polygon fill="#9a32cd" stroke="#9a32cd" points="55.5001,-57.4005 59,-67.4005 62.5001,-57.4006 55.5001,-57.4005"/>
<text text-anchor="middle" x="74.5" y="-41" font-family="Helvetica,sans-Serif" font-size="10.00" fill="#000000"> tensor</text>
</g>
<!-- Node3 -->
<g id="node3" class="node">
<title>Node3</title>
<g id="a_node3"><a xlink:href="structtensor__def_1_1coolist.html" target="_top" xlink:title="Coordinate list. Type used to represent the sparse tensor. ">
<polygon fill="#ffffff" stroke="#000000" points="10.5,-134.5 10.5,-153.5 107.5,-153.5 107.5,-134.5 10.5,-134.5"/>
<text text-anchor="middle" x="59" y="-141.5" font-family="Helvetica,sans-Serif" font-size="10.00" fill="#000000">tensor_def::coolist</text>
</a>
</g>
</g>
<!-- Node3&#45;&gt;Node2 -->
<g id="edge2" class="edge">
<title>Node3&#45;&gt;Node2</title>
<path fill="none" stroke="#9a32cd" stroke-dasharray="5,2" d="M59,-124.1079C59,-111.714 59,-96.3263 59,-86.5817"/>
<polygon fill="#9a32cd" stroke="#9a32cd" points="55.5001,-124.4005 59,-134.4005 62.5001,-124.4006 55.5001,-124.4005"/>
<text text-anchor="middle" x="62.5" y="-108" font-family="Helvetica,sans-Serif" font-size="10.00" fill="#000000"> t</text>
</g>
<!-- Node4 -->
<g id="node4" class="node">
<title>Node4</title>
<g id="a_node4"><a xlink:href="structtensor__def_1_1coolistelem.html" target="_top" xlink:title="Coordinate list element type. Elementary elements of the sparse tensors. ">
<polygon fill="#ffffff" stroke="#000000" points="0,-201.5 0,-220.5 118,-220.5 118,-201.5 0,-201.5"/>
<text text-anchor="middle" x="59" y="-208.5" font-family="Helvetica,sans-Serif" font-size="10.00" fill="#000000">tensor_def::coolistelem</text>
</a>
</g>
</g>
<!-- Node4&#45;&gt;Node3 -->
<g id="edge3" class="edge">
<title>Node4&#45;&gt;Node3</title>
<path fill="none" stroke="#9a32cd" stroke-dasharray="5,2" d="M59,-191.1079C59,-178.714 59,-163.3263 59,-153.5817"/>
<polygon fill="#9a32cd" stroke="#9a32cd" points="55.5001,-191.4005 59,-201.4005 62.5001,-191.4006 55.5001,-191.4005"/>
<text text-anchor="middle" x="74" y="-175" font-family="Helvetica,sans-Serif" font-size="10.00" fill="#000000"> elems</text>
</g>
</g>
</svg>
