<?xml version="1.0" encoding="UTF-8" standalone="no"?>
<!DOCTYPE svg PUBLIC "-//W3C//DTD SVG 1.1//EN"
 "http://www.w3.org/Graphics/SVG/1.1/DTD/svg11.dtd">
<!-- Generated by graphviz version 2.40.1 (20161225.0304)
 -->
<!-- Title: params::modelconfiguration Pages: 1 -->
<svg width="379pt" height="104pt"
 viewBox="0.00 0.00 379.00 104.00" xmlns="http://www.w3.org/2000/svg" xmlns:xlink="http://www.w3.org/1999/xlink">
<g id="graph0" class="graph" transform="scale(1 1) rotate(0) translate(4 100)">
<title>params::modelconfiguration</title>
<polygon fill="#ffffff" stroke="transparent" points="-4,4 -4,-100 375,-100 375,4 -4,4"/>
<!-- Node1 -->
<g id="node1" class="node">
<title>Node1</title>
<polygon fill="#bfbfbf" stroke="#000000" points="234,-38.5 234,-57.5 371,-57.5 371,-38.5 234,-38.5"/>
<text text-anchor="middle" x="302.5" y="-45.5" font-family="Helvetica,sans-Serif" font-size="10.00" fill="#000000">params::modelconfiguration</text>
</g>
<!-- Node2 -->
<g id="node2" class="node">
<title>Node2</title>
<g id="a_node2"><a xlink:href="structparams_1_1modesconfiguration.html" target="_top" xlink:title="The subclass containing the modes parameters. ">
<polygon fill="#ffffff" stroke="#000000" points="4.5,-76.5 4.5,-95.5 144.5,-95.5 144.5,-76.5 4.5,-76.5"/>
<text text-anchor="middle" x="74.5" y="-83.5" font-family="Helvetica,sans-Serif" font-size="10.00" fill="#000000">params::modesconfiguration</text>
</a>
</g>
</g>
<!-- Node2&#45;&gt;Node1 -->
<g id="edge1" class="edge">
<title>Node2&#45;&gt;Node1</title>
<path fill="none" stroke="#9a32cd" stroke-dasharray="5,2" d="M144.0591,-74.8437C166.9786,-71.1276 192.5883,-66.9325 216,-63 226.3713,-61.2579 237.4358,-59.3652 248.0664,-57.5296"/>
<polygon fill="#9a32cd" stroke="#9a32cd" points="143.3888,-71.4065 134.0766,-76.4595 144.5074,-78.3166 143.3888,-71.4065"/>
<text text-anchor="middle" x="191.5" y="-73" font-family="Helvetica,sans-Serif" font-size="10.00" fill="#000000"> modes</text>
</g>
<!-- Node3 -->
<g id="node3" class="node">
<title>Node3</title>
<g id="a_node3"><a xlink:href="structparams_1_1integrationparameters.html" target="_top" xlink:title="The subclass containing the integration parameters. ">
<polygon fill="#ffffff" stroke="#000000" points="0,-38.5 0,-57.5 149,-57.5 149,-38.5 0,-38.5"/>
<text text-anchor="middle" x="74.5" y="-45.5" font-family="Helvetica,sans-Serif" font-size="10.00" fill="#000000">params::integrationparameters</text>
</a>
</g>
</g>
<!-- Node3&#45;&gt;Node1 -->
<g id="edge2" class="edge">
<title>Node3&#45;&gt;Node1</title>
<path fill="none" stroke="#9a32cd" stroke-dasharray="5,2" d="M159.201,-48C183.8051,-48 210.3625,-48 233.851,-48"/>
<polygon fill="#9a32cd" stroke="#9a32cd" points="159.1558,-44.5001 149.1557,-48 159.1557,-51.5001 159.1558,-44.5001"/>
<text text-anchor="middle" x="191.5" y="-51" font-family="Helvetica,sans-Serif" font-size="10.00" fill="#000000"> integration</text>
</g>
<!-- Node4 -->
<g id="node4" class="node">
<title>Node4</title>
<g id="a_node4"><a xlink:href="structparams_1_1physicsconfiguration.html" target="_top" xlink:title="The subclass containing the physical parameters of the model. ">
<polygon fill="#ffffff" stroke="#000000" points="2.5,-.5 2.5,-19.5 146.5,-19.5 146.5,-.5 2.5,-.5"/>
<text text-anchor="middle" x="74.5" y="-7.5" font-family="Helvetica,sans-Serif" font-size="10.00" fill="#000000">params::physicsconfiguration</text>
</a>
</g>
</g>
<!-- Node4&#45;&gt;Node1 -->
<g id="edge3" class="edge">
<title>Node4&#45;&gt;Node1</title>
<path fill="none" stroke="#9a32cd" stroke-dasharray="5,2" d="M144.0591,-21.1563C166.9786,-24.8724 192.5883,-29.0675 216,-33 226.3713,-34.7421 237.4358,-36.6348 248.0664,-38.4704"/>
<polygon fill="#9a32cd" stroke="#9a32cd" points="144.5074,-17.6834 134.0766,-19.5405 143.3888,-24.5935 144.5074,-17.6834"/>
<text text-anchor="middle" x="191.5" y="-36" font-family="Helvetica,sans-Serif" font-size="10.00" fill="#000000"> physics</text>
</g>
</g>
</svg>
