<?xml version="1.0" encoding="UTF-8" standalone="no"?>
<!DOCTYPE svg PUBLIC "-//W3C//DTD SVG 1.1//EN"
 "http://www.w3.org/Graphics/SVG/1.1/DTD/svg11.dtd">
<!-- Generated by graphviz version 2.40.1 (20161225.0304)
 -->
<!-- Title: inprod_analytic::oceaninnerproducts Pages: 1 -->
<svg width="988pt" height="196pt"
 viewBox="0.00 0.00 988.00 196.00" xmlns="http://www.w3.org/2000/svg" xmlns:xlink="http://www.w3.org/1999/xlink">
<g id="graph0" class="graph" transform="scale(1 1) rotate(0) translate(4 192)">
<title>inprod_analytic::oceaninnerproducts</title>
<polygon fill="#ffffff" stroke="transparent" points="-4,4 -4,-192 984,-192 984,4 -4,4"/>
<!-- Node1 -->
<g id="node1" class="node">
<title>Node1</title>
<polygon fill="#bfbfbf" stroke="#000000" points="246,-166.5 246,-185.5 419,-185.5 419,-166.5 246,-166.5"/>
<text text-anchor="middle" x="332.5" y="-173.5" font-family="Helvetica,sans-Serif" font-size="10.00" fill="#000000">inprod_analytic::oceaninnerproducts</text>
</g>
<!-- Node2 -->
<g id="node2" class="node">
<title>Node2</title>
<g id="a_node2"><a xlink:href="structinprod__analytic_1_1innerproducts.html" target="_top" xlink:title="Global class for the inner products. Contains also the modes informations. ">
<polygon fill="#ffffff" stroke="#000000" points="534,-112.5 534,-131.5 680,-131.5 680,-112.5 534,-112.5"/>
<text text-anchor="middle" x="607" y="-119.5" font-family="Helvetica,sans-Serif" font-size="10.00" fill="#000000">inprod_analytic::innerproducts</text>
</a>
</g>
</g>
<!-- Node1&#45;&gt;Node2 -->
<g id="edge10" class="edge">
<title>Node1&#45;&gt;Node2</title>
<path fill="none" stroke="#9a32cd" stroke-dasharray="5,2" d="M429.3261,-178.6386C457.6254,-177.4358 488.3675,-174.1773 516,-167 544.6586,-159.5562 574.8932,-142.5025 592.2931,-131.6577"/>
<polygon fill="#9a32cd" stroke="#9a32cd" points="428.8949,-175.1512 419.0209,-178.9921 429.135,-182.1471 428.8949,-175.1512"/>
<text text-anchor="middle" x="482.5" y="-180" font-family="Helvetica,sans-Serif" font-size="10.00" fill="#000000"> ocean</text>
</g>
<!-- Node2&#45;&gt;Node1 -->
<g id="edge1" class="edge">
<title>Node2&#45;&gt;Node1</title>
<path fill="none" stroke="#9a32cd" stroke-dasharray="5,2" d="M548.5806,-133.4923C498.6782,-143.3092 427.7409,-157.2641 380.9432,-166.4702"/>
<polygon fill="#9a32cd" stroke="#9a32cd" points="549.4438,-136.8897 558.5802,-131.5252 548.0926,-130.0213 549.4438,-136.8897"/>
<text text-anchor="middle" x="482.5" y="-155" font-family="Helvetica,sans-Serif" font-size="10.00" fill="#000000"> inner_products</text>
</g>
<!-- Node5 -->
<g id="node5" class="node">
<title>Node5</title>
<g id="a_node5"><a xlink:href="structinprod__analytic_1_1atmosphereinnerproducts.html" target="_top" xlink:title="Class holding the atmospheric inner products functions. ">
<polygon fill="#ffffff" stroke="#000000" points="783,-112.5 783,-131.5 980,-131.5 980,-112.5 783,-112.5"/>
<text text-anchor="middle" x="881.5" y="-119.5" font-family="Helvetica,sans-Serif" font-size="10.00" fill="#000000">inprod_analytic::atmosphereinnerproducts</text>
</a>
</g>
</g>
<!-- Node2&#45;&gt;Node5 -->
<g id="edge5" class="edge">
<title>Node2&#45;&gt;Node5</title>
<path fill="none" stroke="#9a32cd" stroke-dasharray="5,2" d="M690.3585,-122C719.5642,-122 752.6403,-122 782.9691,-122"/>
<polygon fill="#9a32cd" stroke="#9a32cd" points="690.2004,-118.5001 680.2004,-122 690.2003,-125.5001 690.2004,-118.5001"/>
<text text-anchor="middle" x="731.5" y="-125" font-family="Helvetica,sans-Serif" font-size="10.00" fill="#000000"> inner_products</text>
</g>
<!-- Node3 -->
<g id="node3" class="node">
<title>Node3</title>
<g id="a_node3"><a xlink:href="structinprod__analytic_1_1oceanicwavenumber.html" target="_top" xlink:title="Oceanic bloc specification object. ">
<polygon fill="#ffffff" stroke="#000000" points="244,-114.5 244,-133.5 421,-133.5 421,-114.5 244,-114.5"/>
<text text-anchor="middle" x="332.5" y="-121.5" font-family="Helvetica,sans-Serif" font-size="10.00" fill="#000000">inprod_analytic::oceanicwavenumber</text>
</a>
</g>
</g>
<!-- Node3&#45;&gt;Node2 -->
<g id="edge2" class="edge">
<title>Node3&#45;&gt;Node2</title>
<path fill="none" stroke="#9a32cd" stroke-dasharray="5,2" d="M431.3279,-123.1363C437.3076,-123.0888 443.234,-123.043 449,-123 476.7046,-122.7934 507.1421,-122.5942 533.8436,-122.4287"/>
<polygon fill="#9a32cd" stroke="#9a32cd" points="431.2045,-119.6371 421.2331,-123.2176 431.261,-126.6368 431.2045,-119.6371"/>
<text text-anchor="middle" x="482.5" y="-126" font-family="Helvetica,sans-Serif" font-size="10.00" fill="#000000"> owavenum</text>
</g>
<!-- Node4 -->
<g id="node4" class="node">
<title>Node4</title>
<g id="a_node4"><a xlink:href="structinprod__analytic_1_1atmosphericwavenumber.html" target="_top" xlink:title="Atmospheric bloc specification object. ">
<polygon fill="#ffffff" stroke="#000000" points="234,-76.5 234,-95.5 431,-95.5 431,-76.5 234,-76.5"/>
<text text-anchor="middle" x="332.5" y="-83.5" font-family="Helvetica,sans-Serif" font-size="10.00" fill="#000000">inprod_analytic::atmosphericwavenumber</text>
</a>
</g>
</g>
<!-- Node4&#45;&gt;Node2 -->
<g id="edge3" class="edge">
<title>Node4&#45;&gt;Node2</title>
<path fill="none" stroke="#9a32cd" stroke-dasharray="5,2" d="M433.765,-96.6818C460.5379,-99.7539 489.3885,-103.2863 516,-107 527.5764,-108.6155 539.9503,-110.5294 551.7254,-112.4401"/>
<polygon fill="#9a32cd" stroke="#9a32cd" points="433.9463,-93.18 423.6148,-95.5276 433.1553,-100.1351 433.9463,-93.18"/>
<text text-anchor="middle" x="482.5" y="-110" font-family="Helvetica,sans-Serif" font-size="10.00" fill="#000000"> awavenum</text>
</g>
<!-- Node5&#45;&gt;Node2 -->
<g id="edge4" class="edge">
<title>Node5&#45;&gt;Node2</title>
<path fill="none" stroke="#9a32cd" stroke-dasharray="5,2" d="M818.3168,-111.058C782.9352,-106.2952 738.0135,-102.5091 698,-106 682.9786,-107.3105 666.7193,-109.8158 652.1565,-112.4619"/>
<polygon fill="#9a32cd" stroke="#9a32cd" points="818.1118,-114.5635 828.5019,-112.4909 819.087,-107.6318 818.1118,-114.5635"/>
<text text-anchor="middle" x="731.5" y="-109" font-family="Helvetica,sans-Serif" font-size="10.00" fill="#000000"> atmos</text>
</g>
<!-- Node6 -->
<g id="node6" class="node">
<title>Node6</title>
<g id="a_node6"><a xlink:href="structparams_1_1modelconfiguration.html" target="_top" xlink:title="The general class holding the model configuration. ">
<polygon fill="#ffffff" stroke="#000000" points="264,-38.5 264,-57.5 401,-57.5 401,-38.5 264,-38.5"/>
<text text-anchor="middle" x="332.5" y="-45.5" font-family="Helvetica,sans-Serif" font-size="10.00" fill="#000000">params::modelconfiguration</text>
</a>
</g>
</g>
<!-- Node6&#45;&gt;Node2 -->
<g id="edge6" class="edge">
<title>Node6&#45;&gt;Node2</title>
<path fill="none" stroke="#9a32cd" stroke-dasharray="5,2" d="M411.3139,-59.1838C444.0844,-64.8222 482.2711,-72.6889 516,-83 541.6424,-90.839 569.8249,-103.6064 587.9297,-112.3848"/>
<polygon fill="#9a32cd" stroke="#9a32cd" points="411.7705,-55.7115 401.3286,-57.5052 410.61,-62.6146 411.7705,-55.7115"/>
<text text-anchor="middle" x="482.5" y="-86" font-family="Helvetica,sans-Serif" font-size="10.00" fill="#000000"> model_config</text>
</g>
<!-- Node7 -->
<g id="node7" class="node">
<title>Node7</title>
<g id="a_node7"><a xlink:href="structparams_1_1modesconfiguration.html" target="_top" xlink:title="The subclass containing the modes parameters. ">
<polygon fill="#ffffff" stroke="#000000" points="4.5,-76.5 4.5,-95.5 144.5,-95.5 144.5,-76.5 4.5,-76.5"/>
<text text-anchor="middle" x="74.5" y="-83.5" font-family="Helvetica,sans-Serif" font-size="10.00" fill="#000000">params::modesconfiguration</text>
</a>
</g>
</g>
<!-- Node7&#45;&gt;Node6 -->
<g id="edge7" class="edge">
<title>Node7&#45;&gt;Node6</title>
<path fill="none" stroke="#9a32cd" stroke-dasharray="5,2" d="M149.6148,-74.9366C187.0284,-69.4261 231.8142,-62.8297 267.7021,-57.5439"/>
<polygon fill="#9a32cd" stroke="#9a32cd" points="148.6545,-71.5402 139.2713,-76.46 149.6746,-78.4655 148.6545,-71.5402"/>
<text text-anchor="middle" x="191.5" y="-74" font-family="Helvetica,sans-Serif" font-size="10.00" fill="#000000"> modes</text>
</g>
<!-- Node8 -->
<g id="node8" class="node">
<title>Node8</title>
<g id="a_node8"><a xlink:href="structparams_1_1integrationparameters.html" target="_top" xlink:title="The subclass containing the integration parameters. ">
<polygon fill="#ffffff" stroke="#000000" points="0,-38.5 0,-57.5 149,-57.5 149,-38.5 0,-38.5"/>
<text text-anchor="middle" x="74.5" y="-45.5" font-family="Helvetica,sans-Serif" font-size="10.00" fill="#000000">params::integrationparameters</text>
</a>
</g>
</g>
<!-- Node8&#45;&gt;Node6 -->
<g id="edge8" class="edge">
<title>Node8&#45;&gt;Node6</title>
<path fill="none" stroke="#9a32cd" stroke-dasharray="5,2" d="M159.4672,-48C193.309,-48 231.7449,-48 263.7817,-48"/>
<polygon fill="#9a32cd" stroke="#9a32cd" points="159.1243,-44.5001 149.1243,-48 159.1243,-51.5001 159.1243,-44.5001"/>
<text text-anchor="middle" x="191.5" y="-51" font-family="Helvetica,sans-Serif" font-size="10.00" fill="#000000"> integration</text>
</g>
<!-- Node9 -->
<g id="node9" class="node">
<title>Node9</title>
<g id="a_node9"><a xlink:href="structparams_1_1physicsconfiguration.html" target="_top" xlink:title="The subclass containing the physical parameters of the model. ">
<polygon fill="#ffffff" stroke="#000000" points="2.5,-.5 2.5,-19.5 146.5,-19.5 146.5,-.5 2.5,-.5"/>
<text text-anchor="middle" x="74.5" y="-7.5" font-family="Helvetica,sans-Serif" font-size="10.00" fill="#000000">params::physicsconfiguration</text>
</a>
</g>
</g>
<!-- Node9&#45;&gt;Node6 -->
<g id="edge9" class="edge">
<title>Node9&#45;&gt;Node6</title>
<path fill="none" stroke="#9a32cd" stroke-dasharray="5,2" d="M149.6148,-21.0634C187.0284,-26.5739 231.8142,-33.1703 267.7021,-38.4561"/>
<polygon fill="#9a32cd" stroke="#9a32cd" points="149.6746,-17.5345 139.2713,-19.54 148.6545,-24.4598 149.6746,-17.5345"/>
<text text-anchor="middle" x="191.5" y="-33" font-family="Helvetica,sans-Serif" font-size="10.00" fill="#000000"> physics</text>
</g>
</g>
</svg>
