<?xml version="1.0" encoding="UTF-8" standalone="no"?>
<!DOCTYPE svg PUBLIC "-//W3C//DTD SVG 1.1//EN"
 "http://www.w3.org/Graphics/SVG/1.1/DTD/svg11.dtd">
<!-- Generated by graphviz version 2.40.1 (20161225.0304)
 -->
<!-- Title: integrator_def::integrator Pages: 1 -->
<svg width="1359pt" height="306pt"
 viewBox="0.00 0.00 1359.00 306.00" xmlns="http://www.w3.org/2000/svg" xmlns:xlink="http://www.w3.org/1999/xlink">
<g id="graph0" class="graph" transform="scale(1 1) rotate(0) translate(4 302)">
<title>integrator_def::integrator</title>
<polygon fill="#ffffff" stroke="transparent" points="-4,4 -4,-302 1355,-302 1355,4 -4,4"/>
<!-- Node1 -->
<g id="node1" class="node">
<title>Node1</title>
<polygon fill="#bfbfbf" stroke="#000000" points="1229,-76.5 1229,-95.5 1351,-95.5 1351,-76.5 1229,-76.5"/>
<text text-anchor="middle" x="1290" y="-83.5" font-family="Helvetica,sans-Serif" font-size="10.00" fill="#000000">integrator_def::integrator</text>
</g>
<!-- Node2 -->
<g id="node2" class="node">
<title>Node2</title>
<g id="a_node2"><a xlink:href="structmodel__def_1_1model.html" target="_top" xlink:title="Class to hold the components of a model version. ">
<polygon fill="#ffffff" stroke="#000000" points="1012.5,-76.5 1012.5,-95.5 1106.5,-95.5 1106.5,-76.5 1012.5,-76.5"/>
<text text-anchor="middle" x="1059.5" y="-83.5" font-family="Helvetica,sans-Serif" font-size="10.00" fill="#000000">model_def::model</text>
</a>
</g>
</g>
<!-- Node2&#45;&gt;Node1 -->
<g id="edge1" class="edge">
<title>Node2&#45;&gt;Node1</title>
<path fill="none" stroke="#9a32cd" stroke-dasharray="5,2" d="M1116.9594,-86C1151.0156,-86 1194.1547,-86 1228.8401,-86"/>
<polygon fill="#9a32cd" stroke="#9a32cd" points="1116.7014,-82.5001 1106.7013,-86 1116.7013,-89.5001 1116.7014,-82.5001"/>
<text text-anchor="middle" x="1193.5" y="-89" font-family="Helvetica,sans-Serif" font-size="10.00" fill="#000000"> pmodel</text>
</g>
<!-- Node3 -->
<g id="node3" class="node">
<title>Node3</title>
<g id="a_node3"><a xlink:href="structtl__ad__tensor_1_1tltensor.html" target="_top" xlink:title="Tensor representation of the Tangent Linear tendencies. ">
<polygon fill="#ffffff" stroke="#000000" points="731,-38.5 731,-57.5 839,-57.5 839,-38.5 731,-38.5"/>
<text text-anchor="middle" x="785" y="-45.5" font-family="Helvetica,sans-Serif" font-size="10.00" fill="#000000">tl_ad_tensor::tltensor</text>
</a>
</g>
</g>
<!-- Node3&#45;&gt;Node2 -->
<g id="edge2" class="edge">
<title>Node3&#45;&gt;Node2</title>
<path fill="none" stroke="#9a32cd" stroke-dasharray="5,2" d="M849.2762,-56.898C899.1878,-63.8074 967.254,-73.2301 1012.2459,-79.4584"/>
<polygon fill="#9a32cd" stroke="#9a32cd" points="849.6179,-53.412 839.2324,-55.5076 848.6579,-60.3459 849.6179,-53.412"/>
<text text-anchor="middle" x="909.5" y="-72" font-family="Helvetica,sans-Serif" font-size="10.00" fill="#000000"> tltensor</text>
</g>
<!-- Node4 -->
<g id="node4" class="node">
<title>Node4</title>
<g id="a_node4"><a xlink:href="structtensor__def_1_1tensor.html" target="_top" xlink:title="General class to represent a sparse tensor. ">
<polygon fill="#ffffff" stroke="#000000" points="469,-55.5 469,-74.5 564,-74.5 564,-55.5 469,-55.5"/>
<text text-anchor="middle" x="516.5" y="-62.5" font-family="Helvetica,sans-Serif" font-size="10.00" fill="#000000">tensor_def::tensor</text>
</a>
</g>
</g>
<!-- Node4&#45;&gt;Node3 -->
<g id="edge3" class="edge">
<title>Node4&#45;&gt;Node3</title>
<path fill="none" stroke="#9a32cd" stroke-dasharray="5,2" d="M574.1668,-56.9146C592.895,-54.5985 613.7959,-52.34 633,-51 665.3859,-48.7401 701.7402,-47.9593 730.7732,-47.758"/>
<polygon fill="#9a32cd" stroke="#9a32cd" points="573.4909,-53.4722 564.0104,-58.2019 574.3711,-60.4167 573.4909,-53.4722"/>
<text text-anchor="middle" x="663.5" y="-54" font-family="Helvetica,sans-Serif" font-size="10.00" fill="#000000"> tensor</text>
</g>
<!-- Node11 -->
<g id="node11" class="node">
<title>Node11</title>
<g id="a_node11"><a xlink:href="structaotensor__def_1_1atmoctensor.html" target="_top" xlink:title="Class to hold the tensor &#160;representation of the tendencies. ">
<polygon fill="#ffffff" stroke="#000000" points="718.5,-76.5 718.5,-95.5 851.5,-95.5 851.5,-76.5 718.5,-76.5"/>
<text text-anchor="middle" x="785" y="-83.5" font-family="Helvetica,sans-Serif" font-size="10.00" fill="#000000">aotensor_def::atmoctensor</text>
</a>
</g>
</g>
<!-- Node4&#45;&gt;Node11 -->
<g id="edge11" class="edge">
<title>Node4&#45;&gt;Node11</title>
<path fill="none" stroke="#9a32cd" stroke-dasharray="5,2" d="M574.3316,-69.5231C616.6351,-72.8318 674.1171,-77.3276 718.3506,-80.7872"/>
<polygon fill="#9a32cd" stroke="#9a32cd" points="574.4355,-66.0207 564.193,-68.7302 573.8896,-72.9994 574.4355,-66.0207"/>
<text text-anchor="middle" x="663.5" y="-81" font-family="Helvetica,sans-Serif" font-size="10.00" fill="#000000"> tensor</text>
</g>
<!-- Node5 -->
<g id="node5" class="node">
<title>Node5</title>
<g id="a_node5"><a xlink:href="structtensor__def_1_1coolist.html" target="_top" xlink:title="Coordinate list. Type used to represent the sparse tensor. ">
<polygon fill="#ffffff" stroke="#000000" points="210,-55.5 210,-74.5 307,-74.5 307,-55.5 210,-55.5"/>
<text text-anchor="middle" x="258.5" y="-62.5" font-family="Helvetica,sans-Serif" font-size="10.00" fill="#000000">tensor_def::coolist</text>
</a>
</g>
</g>
<!-- Node5&#45;&gt;Node4 -->
<g id="edge4" class="edge">
<title>Node5&#45;&gt;Node4</title>
<path fill="none" stroke="#9a32cd" stroke-dasharray="5,2" d="M317.1134,-65C362.9267,-65 425.8105,-65 468.6263,-65"/>
<polygon fill="#9a32cd" stroke="#9a32cd" points="317.0279,-61.5001 307.0278,-65 317.0278,-68.5001 317.0279,-61.5001"/>
<text text-anchor="middle" x="375.5" y="-68" font-family="Helvetica,sans-Serif" font-size="10.00" fill="#000000"> t</text>
</g>
<!-- Node6 -->
<g id="node6" class="node">
<title>Node6</title>
<g id="a_node6"><a xlink:href="structtensor__def_1_1coolistelem.html" target="_top" xlink:title="Coordinate list element type. Elementary elements of the sparse tensors. ">
<polygon fill="#ffffff" stroke="#000000" points="0,-55.5 0,-74.5 118,-74.5 118,-55.5 0,-55.5"/>
<text text-anchor="middle" x="59" y="-62.5" font-family="Helvetica,sans-Serif" font-size="10.00" fill="#000000">tensor_def::coolistelem</text>
</a>
</g>
</g>
<!-- Node6&#45;&gt;Node5 -->
<g id="edge5" class="edge">
<title>Node6&#45;&gt;Node5</title>
<path fill="none" stroke="#9a32cd" stroke-dasharray="5,2" d="M128.1623,-65C155.0225,-65 185.1586,-65 209.6818,-65"/>
<polygon fill="#9a32cd" stroke="#9a32cd" points="128.0469,-61.5001 118.0468,-65 128.0468,-68.5001 128.0469,-61.5001"/>
<text text-anchor="middle" x="151" y="-68" font-family="Helvetica,sans-Serif" font-size="10.00" fill="#000000"> elems</text>
</g>
<!-- Node7 -->
<g id="node7" class="node">
<title>Node7</title>
<g id="a_node7"><a xlink:href="structparams_1_1modelconfiguration.html" target="_top" xlink:title="The general class holding the model configuration. ">
<polygon fill="#ffffff" stroke="#000000" points="448,-146.5 448,-165.5 585,-165.5 585,-146.5 448,-146.5"/>
<text text-anchor="middle" x="516.5" y="-153.5" font-family="Helvetica,sans-Serif" font-size="10.00" fill="#000000">params::modelconfiguration</text>
</a>
</g>
</g>
<!-- Node7&#45;&gt;Node2 -->
<g id="edge6" class="edge">
<title>Node7&#45;&gt;Node2</title>
<path fill="none" stroke="#9a32cd" stroke-dasharray="5,2" d="M595.3857,-145.8306C710.0071,-131.0543 919.0672,-104.1037 1012.3638,-92.0765"/>
<polygon fill="#9a32cd" stroke="#9a32cd" points="594.7417,-142.3845 585.2713,-147.1345 595.6368,-149.3271 594.7417,-142.3845"/>
<text text-anchor="middle" x="785" y="-133" font-family="Helvetica,sans-Serif" font-size="10.00" fill="#000000"> model_configuration</text>
</g>
<!-- Node14 -->
<g id="node14" class="node">
<title>Node14</title>
<g id="a_node14"><a xlink:href="structinprod__analytic_1_1innerproducts.html" target="_top" xlink:title="Global class for the inner products. Contains also the modes informations. ">
<polygon fill="#ffffff" stroke="#000000" points="712,-215.5 712,-234.5 858,-234.5 858,-215.5 712,-215.5"/>
<text text-anchor="middle" x="785" y="-222.5" font-family="Helvetica,sans-Serif" font-size="10.00" fill="#000000">inprod_analytic::innerproducts</text>
</a>
</g>
</g>
<!-- Node7&#45;&gt;Node14 -->
<g id="edge19" class="edge">
<title>Node7&#45;&gt;Node14</title>
<path fill="none" stroke="#9a32cd" stroke-dasharray="5,2" d="M578.7958,-167.4754C613.0344,-174.2474 656.1241,-183.5332 694,-194 716.3612,-200.1794 741.2677,-208.7876 759.3631,-215.3653"/>
<polygon fill="#9a32cd" stroke="#9a32cd" points="579.4148,-164.0302 568.9288,-165.5447 578.0705,-170.8999 579.4148,-164.0302"/>
<text text-anchor="middle" x="663.5" y="-197" font-family="Helvetica,sans-Serif" font-size="10.00" fill="#000000"> model_config</text>
</g>
<!-- Node8 -->
<g id="node8" class="node">
<title>Node8</title>
<g id="a_node8"><a xlink:href="structparams_1_1modesconfiguration.html" target="_top" xlink:title="The subclass containing the modes parameters. ">
<polygon fill="#ffffff" stroke="#000000" points="188.5,-146.5 188.5,-165.5 328.5,-165.5 328.5,-146.5 188.5,-146.5"/>
<text text-anchor="middle" x="258.5" y="-153.5" font-family="Helvetica,sans-Serif" font-size="10.00" fill="#000000">params::modesconfiguration</text>
</a>
</g>
</g>
<!-- Node8&#45;&gt;Node7 -->
<g id="edge7" class="edge">
<title>Node8&#45;&gt;Node7</title>
<path fill="none" stroke="#9a32cd" stroke-dasharray="5,2" d="M338.8201,-156C373.7234,-156 414.1986,-156 447.6944,-156"/>
<polygon fill="#9a32cd" stroke="#9a32cd" points="338.6589,-152.5001 328.6588,-156 338.6588,-159.5001 338.6589,-152.5001"/>
<text text-anchor="middle" x="375.5" y="-159" font-family="Helvetica,sans-Serif" font-size="10.00" fill="#000000"> modes</text>
</g>
<!-- Node9 -->
<g id="node9" class="node">
<title>Node9</title>
<g id="a_node9"><a xlink:href="structparams_1_1integrationparameters.html" target="_top" xlink:title="The subclass containing the integration parameters. ">
<polygon fill="#ffffff" stroke="#000000" points="184,-108.5 184,-127.5 333,-127.5 333,-108.5 184,-108.5"/>
<text text-anchor="middle" x="258.5" y="-115.5" font-family="Helvetica,sans-Serif" font-size="10.00" fill="#000000">params::integrationparameters</text>
</a>
</g>
</g>
<!-- Node9&#45;&gt;Node7 -->
<g id="edge8" class="edge">
<title>Node9&#45;&gt;Node7</title>
<path fill="none" stroke="#9a32cd" stroke-dasharray="5,2" d="M333.6148,-129.0634C371.0284,-134.5739 415.8142,-141.1703 451.7021,-146.4561"/>
<polygon fill="#9a32cd" stroke="#9a32cd" points="333.6746,-125.5345 323.2713,-127.54 332.6545,-132.4598 333.6746,-125.5345"/>
<text text-anchor="middle" x="375.5" y="-141" font-family="Helvetica,sans-Serif" font-size="10.00" fill="#000000"> integration</text>
</g>
<!-- Node10 -->
<g id="node10" class="node">
<title>Node10</title>
<g id="a_node10"><a xlink:href="structparams_1_1physicsconfiguration.html" target="_top" xlink:title="The subclass containing the physical parameters of the model. ">
<polygon fill="#ffffff" stroke="#000000" points="186.5,-184.5 186.5,-203.5 330.5,-203.5 330.5,-184.5 186.5,-184.5"/>
<text text-anchor="middle" x="258.5" y="-191.5" font-family="Helvetica,sans-Serif" font-size="10.00" fill="#000000">params::physicsconfiguration</text>
</a>
</g>
</g>
<!-- Node10&#45;&gt;Node7 -->
<g id="edge9" class="edge">
<title>Node10&#45;&gt;Node7</title>
<path fill="none" stroke="#9a32cd" stroke-dasharray="5,2" d="M333.6148,-182.9366C371.0284,-177.4261 415.8142,-170.8297 451.7021,-165.5439"/>
<polygon fill="#9a32cd" stroke="#9a32cd" points="332.6545,-179.5402 323.2713,-184.46 333.6746,-186.4655 332.6545,-179.5402"/>
<text text-anchor="middle" x="375.5" y="-182" font-family="Helvetica,sans-Serif" font-size="10.00" fill="#000000"> physics</text>
</g>
<!-- Node11&#45;&gt;Node2 -->
<g id="edge10" class="edge">
<title>Node11&#45;&gt;Node2</title>
<path fill="none" stroke="#9a32cd" stroke-dasharray="5,2" d="M861.9068,-86C910.2132,-86 970.9716,-86 1012.2721,-86"/>
<polygon fill="#9a32cd" stroke="#9a32cd" points="861.7993,-82.5001 851.7992,-86 861.7992,-89.5001 861.7993,-82.5001"/>
<text text-anchor="middle" x="909.5" y="-89" font-family="Helvetica,sans-Serif" font-size="10.00" fill="#000000"> aotensor</text>
</g>
<!-- Node12 -->
<g id="node12" class="node">
<title>Node12</title>
<g id="a_node12"><a xlink:href="structtl__ad__tensor_1_1adtensor.html" target="_top" xlink:title="Tensor representation of the Adjoint tendencies. ">
<polygon fill="#ffffff" stroke="#000000" points="728.5,-.5 728.5,-19.5 841.5,-19.5 841.5,-.5 728.5,-.5"/>
<text text-anchor="middle" x="785" y="-7.5" font-family="Helvetica,sans-Serif" font-size="10.00" fill="#000000">tl_ad_tensor::adtensor</text>
</a>
</g>
</g>
<!-- Node12&#45;&gt;Node2 -->
<g id="edge12" class="edge">
<title>Node12&#45;&gt;Node2</title>
<path fill="none" stroke="#9a32cd" stroke-dasharray="5,2" d="M842.9445,-21.6521C872.994,-28.085 910.1814,-36.6559 943,-46 974.8793,-55.0767 1010.8627,-67.8257 1034.2938,-76.4727"/>
<polygon fill="#9a32cd" stroke="#9a32cd" points="843.5524,-18.2033 833.0441,-19.5544 842.1015,-25.0512 843.5524,-18.2033"/>
<text text-anchor="middle" x="909.5" y="-49" font-family="Helvetica,sans-Serif" font-size="10.00" fill="#000000"> adtensor</text>
</g>
<!-- Node13 -->
<g id="node13" class="node">
<title>Node13</title>
<polygon fill="#ffffff" stroke="#bfbfbf" points="489,-.5 489,-19.5 544,-19.5 544,-.5 489,-.5"/>
<text text-anchor="middle" x="516.5" y="-7.5" font-family="Helvetica,sans-Serif" font-size="10.00" fill="#000000">TlTensor</text>
</g>
<!-- Node13&#45;&gt;Node12 -->
<g id="edge13" class="edge">
<title>Node13&#45;&gt;Node12</title>
<path fill="none" stroke="#191970" d="M554.2251,-10C599.5671,-10 676.0814,-10 728.486,-10"/>
<polygon fill="#191970" stroke="#191970" points="554.223,-6.5001 544.2229,-10 554.2229,-13.5001 554.223,-6.5001"/>
</g>
<!-- Node14&#45;&gt;Node2 -->
<g id="edge14" class="edge">
<title>Node14&#45;&gt;Node2</title>
<path fill="none" stroke="#9a32cd" stroke-dasharray="5,2" d="M812.8386,-210.9032C868.6531,-182.6401 992.9536,-119.6974 1040.5005,-95.6209"/>
<polygon fill="#9a32cd" stroke="#9a32cd" points="811.2077,-207.8058 803.8675,-215.446 814.3701,-214.0508 811.2077,-207.8058"/>
<text text-anchor="middle" x="909.5" y="-179" font-family="Helvetica,sans-Serif" font-size="10.00" fill="#000000"> inner_products</text>
</g>
<!-- Node17 -->
<g id="node17" class="node">
<title>Node17</title>
<g id="a_node17"><a xlink:href="structinprod__analytic_1_1atmosphereinnerproducts.html" target="_top" xlink:title="Class holding the atmospheric inner products functions. ">
<polygon fill="#ffffff" stroke="#000000" points="961,-266.5 961,-285.5 1158,-285.5 1158,-266.5 961,-266.5"/>
<text text-anchor="middle" x="1059.5" y="-273.5" font-family="Helvetica,sans-Serif" font-size="10.00" fill="#000000">inprod_analytic::atmosphereinnerproducts</text>
</a>
</g>
</g>
<!-- Node14&#45;&gt;Node17 -->
<g id="edge18" class="edge">
<title>Node14&#45;&gt;Node17</title>
<path fill="none" stroke="#9a32cd" stroke-dasharray="5,2" d="M846.3878,-236.4054C895.0024,-245.4376 962.1312,-257.9096 1007.9769,-266.4274"/>
<polygon fill="#9a32cd" stroke="#9a32cd" points="846.7805,-232.9185 836.3093,-234.5329 845.5017,-239.8007 846.7805,-232.9185"/>
<text text-anchor="middle" x="909.5" y="-256" font-family="Helvetica,sans-Serif" font-size="10.00" fill="#000000"> inner_products</text>
</g>
<!-- Node18 -->
<g id="node18" class="node">
<title>Node18</title>
<g id="a_node18"><a xlink:href="structinprod__analytic_1_1oceaninnerproducts.html" target="_top" xlink:title="Class holding the oceanic inner products functions. ">
<polygon fill="#ffffff" stroke="#000000" points="973,-213.5 973,-232.5 1146,-232.5 1146,-213.5 973,-213.5"/>
<text text-anchor="middle" x="1059.5" y="-220.5" font-family="Helvetica,sans-Serif" font-size="10.00" fill="#000000">inprod_analytic::oceaninnerproducts</text>
</a>
</g>
</g>
<!-- Node14&#45;&gt;Node18 -->
<g id="edge21" class="edge">
<title>Node14&#45;&gt;Node18</title>
<path fill="none" stroke="#9a32cd" stroke-dasharray="5,2" d="M836.8861,-213.5974C849.6137,-211.2743 863.246,-209.1811 876,-208 918.9674,-204.021 967.6474,-208.41 1004.0661,-213.4478"/>
<polygon fill="#9a32cd" stroke="#9a32cd" points="836.076,-210.1886 826.9067,-215.4966 837.3848,-217.0652 836.076,-210.1886"/>
<text text-anchor="middle" x="909.5" y="-211" font-family="Helvetica,sans-Serif" font-size="10.00" fill="#000000"> inner_products</text>
</g>
<!-- Node15 -->
<g id="node15" class="node">
<title>Node15</title>
<g id="a_node15"><a xlink:href="structinprod__analytic_1_1oceanicwavenumber.html" target="_top" xlink:title="Oceanic bloc specification object. ">
<polygon fill="#ffffff" stroke="#000000" points="428,-236.5 428,-255.5 605,-255.5 605,-236.5 428,-236.5"/>
<text text-anchor="middle" x="516.5" y="-243.5" font-family="Helvetica,sans-Serif" font-size="10.00" fill="#000000">inprod_analytic::oceanicwavenumber</text>
</a>
</g>
</g>
<!-- Node15&#45;&gt;Node14 -->
<g id="edge15" class="edge">
<title>Node15&#45;&gt;Node14</title>
<path fill="none" stroke="#9a32cd" stroke-dasharray="5,2" d="M615.3954,-238.2652C647.2574,-235.7732 681.9801,-233.0574 711.6617,-230.736"/>
<polygon fill="#9a32cd" stroke="#9a32cd" points="614.8577,-234.7964 605.1611,-239.0656 615.4036,-241.7751 614.8577,-234.7964"/>
<text text-anchor="middle" x="663.5" y="-239" font-family="Helvetica,sans-Serif" font-size="10.00" fill="#000000"> owavenum</text>
</g>
<!-- Node16 -->
<g id="node16" class="node">
<title>Node16</title>
<g id="a_node16"><a xlink:href="structinprod__analytic_1_1atmosphericwavenumber.html" target="_top" xlink:title="Atmospheric bloc specification object. ">
<polygon fill="#ffffff" stroke="#000000" points="418,-198.5 418,-217.5 615,-217.5 615,-198.5 418,-198.5"/>
<text text-anchor="middle" x="516.5" y="-205.5" font-family="Helvetica,sans-Serif" font-size="10.00" fill="#000000">inprod_analytic::atmosphericwavenumber</text>
</a>
</g>
</g>
<!-- Node16&#45;&gt;Node14 -->
<g id="edge16" class="edge">
<title>Node16&#45;&gt;Node14</title>
<path fill="none" stroke="#9a32cd" stroke-dasharray="5,2" d="M625.2013,-209.2898C647.9552,-210.0564 671.7816,-211.2269 694,-213 702.1013,-213.6465 710.5863,-214.5117 718.9807,-215.4828"/>
<polygon fill="#9a32cd" stroke="#9a32cd" points="625.2838,-205.7907 615.1789,-208.9753 625.0642,-212.7873 625.2838,-205.7907"/>
<text text-anchor="middle" x="663.5" y="-216" font-family="Helvetica,sans-Serif" font-size="10.00" fill="#000000"> awavenum</text>
</g>
<!-- Node17&#45;&gt;Node14 -->
<g id="edge17" class="edge">
<title>Node17&#45;&gt;Node14</title>
<path fill="none" stroke="#9a32cd" stroke-dasharray="5,2" d="M988.1089,-286.3884C953.6588,-289.0859 912.0759,-288.8981 876,-279 844.4654,-270.3479 812.7888,-247.6208 796.4133,-234.5747"/>
<polygon fill="#9a32cd" stroke="#9a32cd" points="988.4348,-289.8734 998.0903,-285.5118 987.8224,-282.9002 988.4348,-289.8734"/>
<text text-anchor="middle" x="909.5" y="-290" font-family="Helvetica,sans-Serif" font-size="10.00" fill="#000000"> atmos</text>
</g>
<!-- Node18&#45;&gt;Node14 -->
<g id="edge20" class="edge">
<title>Node18&#45;&gt;Node14</title>
<path fill="none" stroke="#9a32cd" stroke-dasharray="5,2" d="M962.7872,-223.7046C928.4035,-223.9552 890.291,-224.2329 858.2004,-224.4667"/>
<polygon fill="#9a32cd" stroke="#9a32cd" points="962.8769,-227.2042 972.8511,-223.6313 962.8258,-220.2044 962.8769,-227.2042"/>
<text text-anchor="middle" x="909.5" y="-227" font-family="Helvetica,sans-Serif" font-size="10.00" fill="#000000"> ocean</text>
</g>
</g>
</svg>
